<svg xmlns="http://www.w3.org/2000/svg" viewBox="0 0 560 800" role="img" aria-label="Accessories">
  <defs>
    <linearGradient id="bg" x1="0" x2="1" y1="0" y2="1">
      <stop offset="0" stop-color="#d0b79b"/>
      <stop offset="1" stop-color="#a6815d"/>
    </linearGradient>
  </defs>
  <rect width="560" height="800" fill="url(#bg)"/>
  <rect y="620" width="560" height="180" fill="#d5c2ac"/>
  <rect x="260" y="170" width="12" height="170" fill="#31231a"/>
  <path d="M250 190c18 0 18 28 0 28-18 0-18-28 0-28z" fill="#31231a"/>
  <path d="M276 222c18 0 18 28 0 28-18 0-18-28 0-28z" fill="#31231a"/>
  <path d="M250 254c18 0 18 28 0 28-18 0-18-28 0-28z" fill="#31231a"/>
  <rect x="132" y="420" width="210" height="170" rx="16" fill="#deccb7"/>
  <rect x="160" y="388" width="66" height="200" fill="#b79a7d"/>
  <circle cx="120" cy="550" r="44" fill="#5b7d46"/>
</svg>
