<svg xmlns="http://www.w3.org/2000/svg" viewBox="0 0 560 800" role="img" aria-label="Cutlery">
  <defs>
    <linearGradient id="bg" x1="0" x2="1" y1="0" y2="1">
      <stop offset="0" stop-color="#c4c8cc"/>
      <stop offset="1" stop-color="#939ba0"/>
    </linearGradient>
  </defs>
  <rect width="560" height="800" fill="url(#bg)"/>
  <path d="M70 210h420l-40 380H110z" fill="#ece9e4"/>
  <rect x="150" y="300" width="24" height="260" rx="10" fill="#9d6a6e"/>
  <ellipse cx="162" cy="280" rx="30" ry="35" fill="#a9797b"/>
  <rect x="230" y="280" width="22" height="280" rx="9" fill="#8d5f66"/>
  <ellipse cx="241" cy="257" rx="20" ry="28" fill="#9b6b73"/>
  <rect x="300" y="305" width="22" height="255" rx="9" fill="#90656d"/>
  <ellipse cx="311" cy="284" rx="24" ry="30" fill="#a17379"/>
  <circle cx="82" cy="124" r="56" fill="#bcc08f"/>
  <path d="M145 103c52-30 90 20 56 56-20 21-47 22-57-4-9-24-7-38 1-52z" fill="#97814f"/>
</svg>
