<svg xmlns="http://www.w3.org/2000/svg" viewBox="0 0 117.7 117.69"><defs><style>.a{fill:#1a1a18;}.b{fill:#fff;}</style></defs><title>asa-selection-logo</title><path class="a" d="M117.7,117.69H0V0H117.7ZM1.2,116.49H116.5V1.2H1.2Z"/><path class="a" d="M63.44,10l1.94,7.68-4.92,0c-.57,0-.76,0-.59.67s6.46,25.16,6.46,25.16c.64,2.62.37,5.33-1.53,7C63.4,51.56,62,51.68,60,51.68H47.45l-2.41-9,3.51,0S50,43,49.69,41.55L42.8,14.8c-1-4.36,1-5.64,3.73-5.63H61.2Z"/><polygon class="a" points="34.4 11.22 45.24 51.68 27.75 51.68 26.96 48.08 40.36 48.02 30.22 10.08 21.04 10.05 8.96 48.09 12.96 48.08 14.67 42.36 25.51 42.33 26.45 45.68 17.63 45.74 15.7 51.68 8.93 51.68 7.79 48.08 20.37 9.13 30.22 9.13 34.4 11.22"/><polygon class="a" points="20 36.89 16.46 36.89 20.49 23.95 22.09 29.77 20 36.89"/><polygon class="a" points="109.62 69.22 8.88 69.23 8.89 53.92 105.47 53.93 109.62 69.22"/><path class="b" d="M61.5,14.6l-3.88,0A1.48,1.48,0,0,0,56,16.69l7.2,28.17c.48,1.91-.88,3.22-2.89,3.23H47.56l-1.2-4.39,2.32,0c1.23.07,2.6,0,1.84-2.81l-7-27.11S42.83,10,46.18,10h14.5Z"/><polygon class="a" points="93.98 11.23 104.82 51.69 87.34 51.7 86.54 48.09 99.95 48.04 89.8 10.09 80.63 10.06 68.54 48.1 72.54 48.09 74.26 42.37 85.09 42.34 86.04 45.69 77.22 45.75 75.28 51.69 68.51 51.69 67.37 48.09 79.95 9.14 89.8 9.14 93.98 11.23"/><polygon class="a" points="79.58 36.9 76.05 36.9 80.08 23.96 81.67 29.78 79.58 36.9"/><path class="b" d="M20.85,59.64c.07-2.22-1.65-3.18-3.62-3.18-1.77,0-3.63,1-3.63,2.89a2.6,2.6,0,0,0,2.24,2.51l1.35.36c1,.27,1.77.63,1.77,1.65,0,1.34-1.25,1.91-2.49,1.91-1.62,0-2.74-.58-2.66-2.38H12.49c-.17,2.44,1.52,3.5,3.92,3.5,1.8,0,3.88-1,3.88-3,0-1.79-1.16-2.36-2.4-2.69l-1.34-.37c-.91-.25-1.62-.64-1.62-1.6,0-1.19,1.33-1.63,2.3-1.63,1.37,0,2.33.48,2.29,2.06Z"/><polygon class="b" points="23.3 66.66 30.24 66.66 30.49 65.55 24.88 65.55 25.61 62.1 30.79 62.1 31.01 60.98 25.84 60.98 26.51 57.81 32.05 57.81 32.28 56.7 25.41 56.7 23.3 66.66"/><polygon class="b" points="33.71 66.66 40.32 66.66 40.55 65.55 35.29 65.55 37.13 56.7 35.81 56.7 33.71 66.66"/><polygon class="b" points="43.22 66.66 50.15 66.66 50.41 65.55 44.79 65.55 45.52 62.1 50.7 62.1 50.92 60.98 45.76 60.98 46.43 57.81 51.97 57.81 52.19 56.7 45.33 56.7 43.22 66.66"/><path class="b" d="M61.42,63.3a3,3,0,0,1-3.09,2.48c-2,0-2.94-1.32-2.94-3.25,0-2.4,1.36-5,4.14-5A2.2,2.2,0,0,1,62,59.91h1.33c0-2.31-1.65-3.45-3.8-3.45-3.4,0-5.47,2.85-5.47,6.07,0,2.75,1.55,4.37,4.27,4.37a4.2,4.2,0,0,0,4.41-3.6Z"/><polygon class="b" points="74.33 56.7 66.28 56.7 66.05 57.81 69.4 57.81 67.53 66.66 68.85 66.66 70.72 57.81 74.07 57.81 74.33 56.7"/><polygon class="b" points="74.92 66.66 76.25 66.66 78.34 56.7 77.02 56.7 74.92 66.66"/><path class="b" d="M81.9,62.53c0-2.4,1.37-5,4.15-5,1.84,0,2.83,1.45,2.83,3.29,0,2.37-1.39,4.91-4,4.91-2,0-2.95-1.32-2.95-3.25m-1.32,0c0,2.75,1.55,4.37,4.27,4.37,3.32,0,5.36-2.9,5.36-6a4.1,4.1,0,0,0-4.16-4.41c-3.41,0-5.47,2.85-5.47,6.07"/><polygon class="b" points="92.34 66.66 93.63 66.66 95.31 58.47 95.34 58.47 98.88 66.66 100.3 66.66 102.41 56.7 101.13 56.7 99.46 64.94 99.43 64.94 95.87 56.7 94.45 56.7 92.34 66.66"/><path class="a" d="M18.37,110.2H19v-3.7H15.88v.79h2.25a2.13,2.13,0,0,1-2.26,2.29,2.53,2.53,0,0,1-2.41-2.81c0-1.51.71-3,2.41-3A1.91,1.91,0,0,1,18,105.33h.93a2.72,2.72,0,0,0-3-2.33c-2.23,0-3.35,1.77-3.35,3.82a3.37,3.37,0,0,0,3.35,3.55,2.77,2.77,0,0,0,2.26-1.05Z"/><polygon class="a" points="27.64 110.2 32.52 110.2 32.52 109.41 28.57 109.41 28.57 106.98 32.23 106.98 32.23 106.19 28.57 106.19 28.57 103.95 32.49 103.95 32.49 103.17 27.64 103.17 27.64 110.2"/><path class="a" d="M41,110.2h.93v-3h2.29c.9,0,1.07.58,1.17,1.27s0,1.44.26,1.73h1a3.64,3.64,0,0,1-.41-1.94c-.07-.69-.24-1.29-1.06-1.45v0A1.67,1.67,0,0,0,46.39,105c0-1.12-.81-1.84-2.13-1.84H41Zm.93-3.79V104h2.33a1.11,1.11,0,0,1,1.25,1.2c0,1-.75,1.25-1.63,1.25Z"/><polygon class="a" points="55.01 110.2 55.89 110.2 55.89 104.35 55.91 104.35 58.11 110.2 58.91 110.2 61.1 104.35 61.12 104.35 61.12 110.2 62.01 110.2 62.01 103.17 60.73 103.17 58.5 109.08 56.29 103.17 55.01 103.17 55.01 110.2"/><path class="a" d="M73.17,104h0l1.17,3.29H72Zm-3.25,6.19h1l.79-2.12h3l.77,2.12h1l-2.75-7h-1Z"/><polygon class="a" points="84.53 110.2 85.42 110.2 85.42 104.56 85.43 104.56 89.11 110.2 90.13 110.2 90.13 103.17 89.25 103.17 89.25 108.87 89.23 108.87 85.52 103.17 84.53 103.17 84.53 110.2"/><polygon class="a" points="104.63 103.17 103.57 103.17 101.51 106.52 99.41 103.17 98.29 103.17 101.01 107.32 101.01 110.2 101.95 110.2 101.95 107.32 104.63 103.17"/></svg>