<?xml version="1.0" encoding="UTF-8"?>
<svg id="Layer_1" xmlns="http://www.w3.org/2000/svg" version="1.1" viewBox="0 0 502 502">
  <!-- Generator: Adobe Illustrator 29.5.1, SVG Export Plug-In . SVG Version: 2.1.0 Build 141)  -->
  <path d="M485.08,332.38c-1.62,4.6-5.4,8.89-9.84,10.94l1.64,1.95c4.58-2.26,8.75-6.79,10.59-12.01,2.89-8.19.87-14.96-5.2-17.05-14.47-5.08-16.4,20.07-28.37,15.97-4.11-1.4-5.27-6.33-3.08-12.55,1.19-3.37,3.55-7.02,6.48-9.28l-1.76-1.8c-2.94,2.26-5.74,6.13-7.15,10.11-2.72,7.74-.89,14.14,4.79,16.09,14.17,4.85,15.99-20.34,28.26-16.01,4.61,1.58,6.01,6.9,3.64,13.63M422.84,370.08l21.27,12.26c9.37,5.4,17.91,3.2,23.33-5.96,5.42-9.16,3.15-17.59-6.22-22.99l-21.27-12.26-1.27,2.14,21.27,12.26c8.03,4.63,9.97,11.85,5.38,19.63-4.6,7.78-11.92,9.66-19.96,5.03l-21.27-12.26-1.27,2.14ZM406.1,420.49c-7.48-6.89-7.68-18.7-.59-26.32,7.09-7.61,18.95-8.33,26.43-1.44,7.48,6.88,7.73,18.74.64,26.36s-19,8.28-26.48,1.4M404.36,422.35c8.48,7.81,21.9,7.08,30-1.62,8.1-8.7,7.8-22.06-.69-29.87-8.48-7.81-21.86-7.04-29.96,1.66-8.1,8.7-7.84,22.02.65,29.83M296.23,457.07l13.39-3.98c10.03-2.98,20.39,2.43,23.31,12.23,2.9,9.74-2.8,19.93-12.77,22.9l-13.44,4-10.48-35.15ZM308.98,450.74l-15.83,4.71,11.86,39.8,15.77-4.69c11.39-3.39,17.88-14.92,14.58-25.97-3.33-11.17-15.05-17.22-26.39-13.85M249.75,459.38l-2.9.18,2.78,41.44,2.48-.16-2.53-37.65,30.17,35.9,2.9-.18-2.78-41.44-2.42.15,2.53,37.65-30.23-35.9ZM204.92,481.98l14.33-22.61,7.55,25.67-21.89-3.06ZM218.36,456.37l-24.53,38.51,2.71.38,6.97-10.96,24.07,3.37,3.68,12.45,2.71.38-12.95-43.75-2.65-.37ZM159.84,466.21l7.63-21.51,11.55,4.07c8.19,2.88,11.51,8.27,9.06,15.17-2.49,7-8.51,9.23-16.7,6.34l-11.55-4.07ZM165.94,441.58l-13.89,39.14,2.35.83,4.63-13.05,11.49,4.05c1.18.41,2.26.73,3.39.94l4.54,16.53,2.8.98-4.96-17.11c6.78.63,11.74-2.54,14.11-9.21,2.9-8.18-.92-14.81-10.62-18.22l-13.84-4.88ZM121.32,437.96l8.49-14.04,12.44,7.35c5.73,3.39,7.52,7.9,4.84,12.32-2.74,4.53-7.6,5.11-13.34,1.72l-12.44-7.35ZM120.07,440.04l12.44,7.35c6.91,4.09,9.19,9.16,6.29,13.95-2.98,4.94-8.61,5.4-15.52,1.32l-12.44-7.35,9.23-15.26ZM128.93,420.58l-21.49,35.54,14.73,8.71c8.14,4.81,14.95,4.09,18.62-1.97,3.01-4.98,1.83-10.24-3.25-14.14,4.89,1.79,9.21.27,11.85-4.11,3.35-5.55,1.18-11.24-5.83-15.38l-14.63-8.65ZM115.71,409.34l-26.42,32.05,1.94,1.56,26.42-32.05-1.94-1.56ZM95.71,393.45l-28.34,26.95,1.7,1.82,28.34-26.95,9.55,10.27,1.76-1.68-20.81-22.35-1.76,1.68,9.56,10.26ZM74.28,361.97l-34.03,23.82,11.95,17.23,1.99-1.39-10.53-15.19,32.04-22.43-1.42-2.05ZM22.4,352.96c4.5,9.64,12.78,12.63,22.61,8.12l22.3-10.24-1.05-2.26-22.3,10.25c-8.42,3.87-15.52,1.31-19.35-6.88-3.82-8.19-1.2-15.22,7.22-19.09l22.3-10.25-1.05-2.25-22.3,10.25c-9.83,4.52-12.88,12.71-8.38,22.35M41.73,269.27l-40.73,8.11.44,2.33,37.36-7.44-29.7,23.42.22,1.11,36.14,10.18-37.35,7.5.45,2.35,40.73-8.12-.65-3.39-35.17-9.89,28.91-22.78-.65-3.38ZM39.55,157.33l-5.79,13.23-15.01-6.63,5.79-13.24c2.67-6.1,6.94-8.44,11.67-6.35,4.84,2.14,6.01,6.88,3.34,12.98M35.98,171.55l5.79-13.23c3.21-7.35,7.99-10.25,13.1-7.99,5.28,2.33,6.43,7.84,3.22,15.2l-5.79,13.23-16.32-7.2ZM36.93,141.96c-5.93-2.62-11.33.25-14.59,7.72l-6.81,15.57,37.99,16.77,6.86-15.68c3.79-8.66,2.23-15.31-4.24-18.17-5.33-2.35-10.41-.51-13.67,5,1.18-5.07-.86-9.14-5.54-11.21M73.43,137.04l-32.14-22.26-1.42,2.04,34.14,23.65,11.95-17.23-2-1.38-10.53,15.19ZM104.06,100.01c-7.44,7.27-19.28,7.27-26.3-.07-7.02-7.35-6.57-19.26.87-26.53,7.44-7.27,19.24-7.32,26.26.03,7.02,7.35,6.61,19.3-.83,26.57M105.74,101.77c8.51-8.3,8.95-21.77.98-30.1-7.97-8.34-21.25-8.32-29.76-.01-8.51,8.3-8.99,21.72-1.02,30.06,7.97,8.34,21.29,8.35,29.8.05M145.42,68.73c-9.08,5.08-20.62,2.06-25.64-6.78-5.01-8.84-1.59-20.15,7.49-25.23,9.08-5.08,20.6-2.12,25.61,6.72,5.01,8.84,1.62,20.21-7.46,25.28M155.11,42.2c-5.69-10.03-18.65-13.4-29.03-7.6-10.38,5.8-14.21,18.55-8.52,28.59,5.69,10.03,18.68,13.45,29.06,7.65,10.38-5.8,14.17-18.61,8.49-28.64M214.09,45.3l2.3-.62-10.42-40.21-3.34.9-7.8,35.96-24.31-27.27-3.32.9,10.42,40.21,2.29-.62-9.56-36.88,24.99,28.02,1.09-.3,8.03-36.96,9.62,36.86ZM234.04,43.53l2.48-.16-2.8-41.44-2.48.16,2.8,41.44ZM252.21,164.95c-6.86-.69-12.98,5.05-14.89,11.44-1.92,6.39-2.43,14.02-2.08,20.66.92,17.08,4.24,32.91,9.19,50.19-14.52-4.48-24.11-8.51-37.47-15.6-7.63-4.06-11.01-7.19-19.27-9.87-8.25-2.69-21.89-4.28-27.4,4.81-2.5,7.28-1.21,16.5,5.89,19.39,7.68,3.12,18.15,6.09,25.59,8,15.35,3.96,30.64,6.23,45.19,8.54-9.49,10.34-21.47,28.42-30.19,38.24-8.25,9.31-15.82,18.73-10.57,29.89.62,1.34,3.09,4.1,4.57,4.85,2.34,1.21,9.06,1.65,11.67.34,7.87-3.99,12.92-12.67,21.61-27.9,5.56-9.73,11.51-23.69,17.21-32.06,6.24,9.19,7.54,13.33,13.68,26.05,1.53,3.17,3.86,6.74,9.76,16.73,2.83,4.79,6.07,8.86,9.24,11.82,2.5,2.32,10.48,12.32,20.97,2.14,8.51-8.24-1.95-22.49-4.74-25.92-13.77-17.01-19.45-29.43-33.11-43.64,18.76-1.57,36.43-4.94,54.76-9.12,5.15-1.17,10.4-2.62,14.61-5.72,4.21-3.1,7.2-8.23,6.28-13.27-1.15-6.24-7.94-10.31-14.49-10.72-6.54-.4-12.88,1.98-18.98,4.32-16.34,6.29-32.68,12.58-49.03,18.86,5.9-18.75,6.43-38.66,5.88-58.25-.14-5.07-.38-10.26-2.42-14.92-2.04-4.67-6.28-8.77-11.48-9.3M287.05,45.25l4.22-41.32-2.42-.22-3.83,37.55L261.2,1.25l-2.89-.25-4.22,41.32,2.48.22,3.83-37.54,23.76,39.99,2.9.25ZM344.29,26.76l2.01-1.25c-2.51-4.48-6.7-8.16-11.97-10.01-11.21-3.95-23.42,1.58-27.25,12.45-3.83,10.88,2.14,22.86,13.3,26.79,5.21,1.84,10.95,1.66,15.69-.2l5-14.18-2.12-.75-4.58,13c-4.09,1.4-8.77,1.45-13.08-.07-9.92-3.5-15.25-14.13-11.86-23.77,3.38-9.59,14.2-14.54,24.12-11.05,4.71,1.66,8.53,4.96,10.75,9.02M367.66,447.08l-11.05-16.06-2.04,1.42,23.53,34.22,2.04-1.42-11.11-16.16,23.11-16.02,11.11,16.16,2.05-1.42-23.53-34.22-2.05,1.41,11.05,16.06-23.11,16.02ZM360.42,73.82l36.44-26.21-2.32-1.45-33.68,24.45,6.91-41.15-2.37-1.48-7.21,44.46,2.22,1.39ZM385.2,91.74l26.76-31.76-1.9-1.61-26.76,31.76,1.9,1.61ZM401.74,103.63l28.78-26.47-1.7-1.82-30.57,28.11,14.29,15.35,1.79-1.64-12.59-13.53ZM423.25,129.19l32.59-21.6-1.37-2.08-34.62,22.94,11.53,17.52,2.02-1.34-10.16-15.44ZM483.84,165.36l2.22-.98-10.74-24.55-38.02,16.71,11.05,25.26,2.22-.98-10.05-22.98,16.11-7.08,8.67,19.82,2.28-1-8.67-19.82,15.18-6.67,9.74,22.27ZM501,274.57l-2.4-.39-4.1,24.74-17.37-2.82,3.53-21.34-2.46-.4-3.53,21.34-16.37-2.66,3.97-23.98-2.4-.39-4.38,26.43,41,6.65,4.51-27.2Z"/>
</svg>