<svg xmlns="http://www.w3.org/2000/svg" width="146" height="20" viewBox="0 0 173 25" fill="none"><path d="M0.413086 0.5H3.8348V11.8211L14.2405 0.5H18.7834L11.0897 8.67028L19.7331 24.2291H15.5639L8.6828 11.2451L3.8348 16.4326V24.2291H0.413086V0.5Z" fill="#000"/><path d="M18.9891 14.8383C18.9891 8.97543 22.6851 5.17658 28.0062 5.17658C30.7868 5.17658 33.3959 6.53086 34.5822 8.396V5.44743H37.9388V24.2291H34.5822V21.3149C33.3959 23.1457 30.7868 24.5 28.0405 24.5C22.6851 24.5 18.9891 20.6703 18.9891 14.8383ZM34.5822 14.8383C34.5822 10.8371 32.0382 8.06 28.4793 8.06C24.9205 8.06 22.3422 10.8406 22.3422 14.8383C22.3422 18.836 24.8862 21.6166 28.4793 21.6166C32.0725 21.6166 34.5822 18.836 34.5822 14.8383Z" fill="#000"/><path d="M39.4988 5.44745H42.9891L48.5159 19.9229L53.9742 5.44745H57.4645L50.1102 24.2292H46.7536L39.3993 5.44745H39.4491H39.4988Z" fill="#000"/><path d="M57.3582 14.8383C57.3582 9.17772 61.0542 5.17658 66.5434 5.17658C72.0325 5.17658 75.8657 9.61657 75.1525 15.3114H60.6771C60.8794 19.3126 63.1525 21.6509 66.6771 21.6509C69.3891 21.6509 71.2542 20.2623 71.6622 18.2257H75.1182C74.4737 21.9217 71.3914 24.4966 66.6771 24.4966C61.0508 24.4966 57.3548 20.4954 57.3548 14.8349L57.3582 14.8383ZM71.7651 12.7366C71.6965 9.788 69.5948 7.95715 66.5468 7.95715C63.4988 7.95715 61.4965 9.75372 60.8862 12.7366H71.7685H71.7651Z" fill="#000"/><path d="M98.6108 12.8737H86.4736V24.2291H83.0485V0.5H86.4736V9.92514H98.6108V0.5H102.036V24.2291H98.6108V12.8737Z" fill="#000"/><path d="M103.898 14.8383C103.898 9.17772 107.899 5.17658 113.388 5.17658C118.877 5.17658 122.913 9.17772 122.913 14.8383C122.913 20.4989 118.911 24.5 113.388 24.5C107.865 24.5 103.898 20.4989 103.898 14.8383ZM119.559 14.8383C119.559 10.8371 116.985 8.06 113.388 8.06C109.791 8.06 107.285 10.8406 107.285 14.8383C107.285 18.836 109.829 21.6166 113.388 21.6166C116.947 21.6166 119.559 18.836 119.559 14.8383Z" fill="#000"/><path d="M124.846 5.44743H128.203V8.36172C129.221 6.49658 131.22 5.17658 133.932 5.17658C136.781 5.17658 138.883 6.63372 139.795 9.10915C141.218 6.668 143.525 5.17658 146.203 5.17658C149.933 5.17658 152.679 7.82 152.679 11.7526V24.2291H149.323V12.5343C149.323 9.89086 147.797 8.16286 145.39 8.16286C142.171 8.16286 140.443 11.2143 140.443 16.1274V24.2291H137.086V12.5343C137.086 9.89086 135.56 8.16286 133.154 8.16286C129.934 8.16286 128.206 11.18 128.206 16.1274V24.2291H124.85V5.44743H124.846Z" fill="#000"/><path d="M154.538 14.8383C154.538 9.17772 158.234 5.17658 163.723 5.17658C169.212 5.17658 173.045 9.61657 172.332 15.3114H157.856C158.059 19.3126 160.332 21.6509 163.856 21.6509C166.568 21.6509 168.434 20.2623 168.838 18.2257H172.298C171.653 21.9217 168.567 24.4966 163.856 24.4966C158.23 24.4966 154.534 20.4954 154.534 14.8349L154.538 14.8383ZM168.944 12.7366C168.876 9.788 166.774 7.95715 163.723 7.95715C160.671 7.95715 158.672 9.75372 158.062 12.7366H168.944Z" fill="#000"/></svg>