<svg class="a-logo__link" width="153" height="23" viewBox="0 0 153 23" fill="none" xmlns="http://www.w3.org/2000/svg">
  <path d="M9.60156 22.9873C14.7923 22.9873 20.0086 21.7385 20.0086 16.1319C20.0086 10.5252 14.6644 9.70969 10.2536 9.30194C7.0957 9.02161 4.37248 8.61385 4.37248 6.5241C4.37248 4.30693 7.05734 3.74626 10.1513 3.74626C13.9357 3.74626 17.6306 4.67645 19.0625 5.7723H19.1903L19.0369 0.968421L18.9474 0.904709C17.4771 1.09584 15.227 0 10.0746 0C5.56149 0.0127424 0.0639252 1.32521 0.0639252 6.93186C0.0639252 12.5385 5.28022 13.0737 9.69106 13.4814C12.9129 13.7873 15.7 14.0421 15.7 16.3867C15.7 18.7313 12.5677 19.2537 9.9084 19.2537C5.58706 19.2537 1.5342 17.8776 0.0894953 16.7562L0 16.7945L0.12785 21.6875L0.217346 21.7512C0.524187 21.7258 0.907738 21.7895 1.81548 22.0061C3.54146 22.4393 6.13682 23 9.60156 23M31.9882 0.356787L31.9626 0.48421C32.653 1.4144 32.7169 3.44044 32.7169 5.84875V17.2532C32.7169 19.0244 32.6913 21.5856 32.001 22.5158L32.0265 22.6432H51.1274L51.7283 18.056L51.6388 17.9922C49.4142 18.8969 45.3485 18.8969 42.4719 18.8969H36.9743V13.354H43.2901C45.1951 13.354 47.2024 13.4177 47.9823 13.851L48.1101 13.8127V9.07258L47.9823 9.04709C47.0106 9.58227 45.0417 9.60776 43.2901 9.60776H36.9743V4.0903H42.0116C45.259 4.0903 48.89 4.11579 50.2963 4.86759L50.4242 4.8421L50.2324 0.356787H32.001H31.9882ZM73.7952 4.10305C76.7614 4.10305 77.8865 5.3518 77.8865 7.09751C77.8865 9.21274 76.1093 10.2449 73.0665 10.2449H68.221V4.0903H73.7825L73.7952 4.10305ZM69.6657 13.9784C73.7569 13.9784 75.9559 16.4759 78.4874 19.6488L80.8909 22.6432H86.9894L87.015 22.5158C85.4808 21.4199 83.9466 19.6233 82.4507 17.8138C80.7375 15.7623 79.0755 13.8255 77.4134 12.9208C80.5969 12.1053 82.3229 9.79889 82.3229 6.99557C82.3229 3.0072 79.2289 0.356787 74.345 0.356787H63.2476L63.222 0.48421C63.9124 1.4144 63.9763 3.32576 63.9763 5.72133V17.2532C63.9508 19.6488 63.9124 21.6111 63.2604 22.5158L63.2987 22.6432H68.8986L68.9625 22.5158C68.3105 21.5856 68.2465 19.6488 68.2465 17.2532V13.9784H69.6785H69.6657ZM103.341 13.5069L107.151 4.9313L110.936 13.5069H103.341ZM113.531 19.3939C113.812 20.0183 114.068 20.7956 114.068 21.5091C114.068 21.8787 114.004 22.2227 113.851 22.5413L113.889 22.6687H120.205L120.231 22.5413C119.425 21.6111 119.08 21.0122 118.134 18.9607L109.657 0.382271H104.339L104.275 0.509695C104.53 1.15956 103.968 2.31911 103.124 4.15402L96.3353 18.9607C95.402 20.9867 95.0823 21.5729 94.2385 22.5413L94.2769 22.6687H100.184L100.209 22.5413C100.12 22.2864 100.081 22.0061 100.081 21.7003C100.081 20.923 100.388 20.0438 100.708 19.3557L101.641 17.2404H112.585L113.518 19.3939H113.531ZM131.008 18.9861C129.858 20.3878 128.822 21.7003 127.786 22.503L127.812 22.6305H134.038L134.102 22.503C134.013 21.8532 134.537 21.0377 135.726 19.5086L139.881 14.1823L144.318 19.8526C144.97 20.6936 145.826 21.7512 145.66 22.5285L145.724 22.6177H152.168L152.206 22.4903C151.452 21.8404 150.672 20.8975 150.199 20.3368L142.719 11.1496L148.537 3.95014C149.662 2.54848 150.761 1.27424 151.784 0.458726L151.746 0.331302H145.558L145.532 0.420499C145.596 1.23601 144.497 2.66316 143.908 3.41496L140.162 8.28255L136.186 3.10914C135.151 1.77119 134.805 1.01939 134.844 0.433241L134.78 0.344044H128.375L128.336 0.471468C129.218 1.18504 129.87 2.06427 130.343 2.62493L137.286 11.226L130.995 18.9861H131.008Z" fill="#1D1D1B"/>
</svg>